<?xml version="1.0" encoding="utf-8"?>
<!-- Generator: Adobe Illustrator 19.1.1, SVG Export Plug-In . SVG Version: 6.00 Build 0)  -->
<svg version="1.1" id="Layer_1" xmlns="http://www.w3.org/2000/svg" xmlns:xlink="http://www.w3.org/1999/xlink" x="0px" y="0px"
	 viewBox="0 0 1200 1200" enable-background="new 0 0 1200 1200" xml:space="preserve">
<g>
	<g>
		<polygon fill="#D6BF9F" points="65.03,490.675 326.555,304.557 588.08,118.439 861.524,304.557 1134.968,490.675 873.443,638.396 
			611.918,786.118 338.474,638.396 		"/>
		<path fill="#2E4C59" d="M611.918,801.151c-1.227,0-2.456-0.15-3.656-0.451s-2.373-0.753-3.489-1.358L331.329,651.621
			L57.885,503.899c-2.284-1.233-4.169-3.012-5.522-5.13c-1.353-2.118-2.175-4.575-2.334-7.164c-0.161-2.592,0.352-5.133,1.436-7.402
			c1.083-2.269,2.736-4.267,4.853-5.773l261.525-186.12l261.525-186.12c2.566-1.826,5.562-2.754,8.564-2.783s6.011,0.84,8.604,2.607
			l273.444,186.12l273.444,186.12c2.149,1.462,3.844,3.426,4.975,5.674c1.131,2.248,1.698,4.78,1.589,7.378
			c-0.109,2.595-0.884,5.071-2.197,7.218c-1.314,2.147-3.166,3.964-5.43,5.241L880.835,651.486L619.31,799.207
			c-1.145,0.646-2.356,1.132-3.599,1.456S613.192,801.151,611.918,801.151z M93.412,488.927l259.171,140.01l259.171,140.01
			l247.378-139.728l247.378-139.728L847.392,313.12L588.274,136.749L340.843,312.838L93.412,488.927z"/>
	</g>
	<g opacity="0.2">
		<polygon fill="#2E4C59" points="75.561,483.179 70.295,486.927 65.029,490.674 338.474,638.396 611.918,786.118 873.443,638.396 
			1134.968,490.674 1129.462,486.927 1123.956,483.179 599.759,483.179 		"/>
		<path fill="#2E4C59" d="M611.918,801.151c-1.227,0-2.456-0.15-3.656-0.451s-2.373-0.753-3.489-1.358L331.329,651.618
			L57.885,503.893c-2.284-1.233-4.169-3.012-5.522-5.131c-1.353-2.119-2.175-4.577-2.334-7.17c-0.159-2.589,0.357-5.13,1.44-7.399
			c1.083-2.269,2.735-4.267,4.848-5.77l5.267-3.746l5.267-3.746c1.274-0.904,2.671-1.6,4.141-2.07s3.011-0.713,4.572-0.713h524.195
			h524.195c1.509,0,2.999,0.226,4.423,0.664c1.424,0.438,2.784,1.088,4.031,1.937l5.507,3.746l5.507,3.746
			c2.149,1.462,3.844,3.427,4.975,5.676c1.131,2.249,1.698,4.781,1.589,7.376c-0.109,2.598-0.884,5.076-2.197,7.223
			c-1.314,2.147-3.166,3.965-5.43,5.242L880.835,651.483L619.31,799.207c-1.145,0.649-2.356,1.135-3.599,1.458
			S613.192,801.151,611.918,801.151z M110.609,498.21l250.572,135.369l250.572,135.369l239.654-135.369l239.654-135.369H600.836
			H110.609z"/>
	</g>
	<g>
		<g>
			<polygon fill="#FFFFFF" points="917.991,1018.25 599.999,1018.25 282.006,1018.25 282.006,622.955 282.006,227.661 
				599.999,227.661 917.991,227.661 917.991,622.955 			"/>
			<path fill="#2E4C59" d="M917.989,1033.278H599.996H282.004c-4.151,0-7.909-1.682-10.629-4.402s-4.402-6.478-4.402-10.629V622.954
				V227.661c0-4.151,1.682-7.909,4.402-10.629s6.478-4.402,10.629-4.402h317.992h317.992c4.151,0,7.909,1.682,10.629,4.402
				c2.72,2.72,4.402,6.478,4.402,10.629v395.294v395.294c0,4.151-1.682,7.909-4.402,10.629
				C925.897,1031.596,922.14,1033.278,917.989,1033.278z M297.035,1003.217h302.962h302.962V622.954V242.691H599.996H297.035
				v380.263V1003.217z"/>
		</g>
		<g>
			<path fill="#2E4C59" d="M796.958,372.699H599.999H403.041c-4.151,0-7.909-1.682-10.628-4.402
				c-2.72-2.72-4.402-6.477-4.402-10.629c0-4.151,1.682-7.909,4.402-10.629c2.72-2.72,6.477-4.402,10.628-4.402h196.958h196.958
				c4.151,0,7.909,1.682,10.628,4.402c2.72,2.72,4.402,6.478,4.402,10.629c0,4.151-1.682,7.909-4.402,10.629
				C804.866,371.017,801.109,372.699,796.958,372.699z"/>
			<path fill="#2E4C59" d="M796.958,482.328H599.999H403.041c-4.151,0-7.909-1.682-10.628-4.402
				c-2.72-2.72-4.402-6.478-4.402-10.629s1.682-7.909,4.402-10.629c2.72-2.72,6.477-4.402,10.628-4.402h196.958h196.958
				c4.151,0,7.909,1.682,10.628,4.402c2.72,2.72,4.402,6.478,4.402,10.629s-1.682,7.909-4.402,10.629
				C804.866,480.646,801.109,482.328,796.958,482.328z"/>
			<path fill="#2E4C59" d="M796.958,591.957H599.999H403.041c-4.151,0-7.909-1.682-10.628-4.402
				c-2.72-2.72-4.402-6.477-4.402-10.629c0-4.151,1.682-7.909,4.402-10.628c2.72-2.72,6.477-4.402,10.628-4.402h196.958h196.958
				c4.151,0,7.909,1.682,10.628,4.402c2.72,2.72,4.402,6.477,4.402,10.628c0,4.151-1.682,7.909-4.402,10.629
				C804.866,590.275,801.109,591.957,796.958,591.957z"/>
		</g>
	</g>
	<g>
		<path fill="#FDE9A4" d="M1134.968,490.675L873.443,638.396L611.918,786.118L338.474,638.396L65.03,490.675v257.074v257.074
			c0,21.191,8.589,40.376,22.477,54.263s33.072,22.477,54.263,22.477h458.229h458.229c21.191,0,40.376-8.589,54.263-22.477
			c13.887-13.887,22.477-33.072,22.477-54.263V747.748V490.675z"/>
		<path fill="#2E4C59" d="M1058.23,1096.594H599.999H141.768c-25.299,0-48.241-10.292-64.859-26.91
			C60.292,1053.066,50,1030.123,50,1004.82V747.749V490.677c0-2.648,0.696-5.198,1.96-7.424s3.098-4.13,5.373-5.487
			c2.272-1.353,4.819-2.062,7.379-2.117c2.561-0.055,5.135,0.544,7.463,1.806l269.789,145.746l269.789,145.746l257.911-145.679
			l257.911-145.679c2.328-1.315,4.917-1.962,7.501-1.944s5.161,0.702,7.465,2.05c2.31,1.347,4.175,3.257,5.461,5.498
			c1.287,2.241,1.995,4.812,1.995,7.484v257.072v257.072c0,25.302-10.292,48.246-26.91,64.864
			C1106.472,1086.302,1083.53,1096.594,1058.23,1096.594z M80.061,515.882v244.469v244.469c0,17.015,6.921,32.443,18.095,43.618
			s26.601,18.095,43.613,18.095h458.231h458.231c17.012,0,32.439-6.921,43.613-18.095c11.174-11.175,18.094-26.603,18.094-43.618
			V760.624V516.428l-250.314,141.39L619.31,799.207c-2.246,1.274-4.743,1.924-7.247,1.948c-2.504,0.023-5.016-0.58-7.291-1.813
			l-262.356-141.73L80.061,515.882z"/>
	</g>
	<g opacity="0.2">
		<path fill="#2E4C59" d="M154.979,539.268l-44.975-24.297l-44.975-24.297v257.074v257.074c0,21.191,8.59,40.376,22.477,54.264
			c13.887,13.887,33.073,22.476,54.264,22.476h6.604h6.604V810.415V539.268z"/>
		<path fill="#2E4C59" d="M154.979,1096.594h-6.605h-6.605c-25.299,0-48.241-10.292-64.859-26.91
			C60.292,1053.066,50,1030.123,50,1004.82V747.746V490.671c0-2.648,0.696-5.198,1.96-7.424c1.265-2.227,3.098-4.13,5.373-5.487
			c2.272-1.353,4.819-2.062,7.379-2.117c2.561-0.055,5.135,0.544,7.463,1.806l44.974,24.298l44.974,24.298
			c2.428,1.312,4.399,3.238,5.763,5.526c1.364,2.288,2.122,4.937,2.122,7.697v271.148v271.148c0,4.151-1.682,7.909-4.402,10.629
			S159.13,1096.594,154.979,1096.594z M80.061,515.876v244.472v244.472c0,16.71,6.676,31.89,17.499,43.013
			s25.796,18.189,42.388,18.671V807.369V548.233l-29.944-16.178L80.061,515.876z"/>
	</g>
	<g opacity="0.2">
		<path fill="#2E4C59" d="M996.687,568.782v256.39v256.39h30.771h30.771c21.191,0,40.376-8.589,54.263-22.476
			c13.887-13.887,22.476-33.072,22.476-54.264V747.748V490.674l-69.14,39.054L996.687,568.782z"/>
		<path fill="#2E4C59" d="M1058.23,1096.594h-30.771h-30.771c-4.151,0-7.909-1.682-10.629-4.402
			c-2.72-2.72-4.402-6.478-4.402-10.629V825.173V568.783c0-2.71,0.729-5.315,2.049-7.576c1.32-2.261,3.229-4.178,5.589-5.511
			l69.14-39.056l69.14-39.056c2.328-1.315,4.917-1.962,7.501-1.944c2.583,0.018,5.161,0.702,7.465,2.05
			c2.31,1.347,4.175,3.257,5.461,5.498c1.287,2.241,1.995,4.812,1.995,7.484v257.075v257.075c0,25.302-10.292,48.246-26.91,64.864
			C1106.472,1086.302,1083.53,1096.594,1058.23,1096.594z M1011.718,1066.533h23.256h23.256c17.012,0,32.439-6.921,43.613-18.095
			c11.174-11.175,18.094-26.603,18.094-43.618V760.621V516.422l-54.11,30.566l-54.11,30.566v244.49V1066.533z"/>
	</g>
	<path fill="#2E4C59" d="M1114.137,1072.299c-1.779,0-3.561-0.314-5.256-0.948c-1.695-0.633-3.304-1.586-4.737-2.863
		L913.614,898.694L723.085,728.899c-3.1-2.76-4.787-6.516-5.007-10.356c-0.221-3.841,1.024-7.766,3.786-10.863
		c2.757-3.103,6.511-4.789,10.352-5.01c3.841-0.22,7.767,1.026,10.867,3.788l190.529,169.795l190.529,169.795
		c3.1,2.76,4.787,6.516,5.008,10.356c0.221,3.841-1.024,7.766-3.786,10.863c-1.485,1.667-3.257,2.925-5.175,3.766
		S1116.206,1072.299,1114.137,1072.299z"/>
	<path fill="#2E4C59" d="M89.085,1072.299c-2.07,0-4.133-0.424-6.051-1.265c-1.918-0.841-3.689-2.099-5.175-3.766
		c-2.762-3.097-4.007-7.022-3.786-10.863s1.907-7.597,5.007-10.356L269.61,876.254l190.529-169.795
		c3.1-2.762,7.024-4.007,10.863-3.786c3.839,0.221,7.594,1.907,10.356,5.007c2.762,3.097,4.007,7.022,3.786,10.863
		c-0.221,3.841-1.907,7.597-5.007,10.356L289.607,898.694L99.078,1068.489c-1.433,1.277-3.041,2.23-4.737,2.863
		C92.646,1071.985,90.864,1072.299,89.085,1072.299z"/>
</g>
</svg>
