<?xml version="1.0" encoding="UTF-8"?>
<svg id="Layer_1" data-name="Layer 1" xmlns="http://www.w3.org/2000/svg" viewBox="0 0 318 688.2">
  <defs>
    <style>
      .cls-1 {
        fill: #fff;
        stroke: #231f20;
        stroke-miterlimit: 10;
        stroke-width: 8px;
      }
    </style>
  </defs>
  <path class="cls-1" d="M1.74,471.08c3.51,6.86,7.29,15.7,10.14,26.35,2.51,9.35,3.69,17.8,4.21,24.82,11.02,2.37,24.85,4.38,40.83,4.51,17.45,.14,32.45-2,44.14-4.51,11.06-17.23,22.12-34.45,33.18-51.68-2.09,1.39-19.89,13.1-24.76,8.35-.82-.8-1.6-2.38-1.06-5.81h0s.05-17.25,.05-17.86c.1-23.66,34-104.75,43.07-127.76,9.07-23.01,18.24-51.57,24.54-85,7.3-38.69,8.7-72.96,7.91-100.31,.86-14.83,.25-41.2-12.9-69.75-6.38-13.86-14.07-24.66-20.81-32.62-7.48-6.68-17.54-14.41-30.37-21.37C102.67,9.07,86.68,4.49,74.91,2.12c2.84,5.05,7.49,13.73,12.13,24.94,30.39,73.3,15.09,143.93-15.5,276.77-4.81,20.88-11.5,47.88-24.46,80.58-14.33,36.14-29.12,61.11-35.52,71.48-3.89,6.3-7.31,11.49-9.82,15.2Z"/>
  <path class="cls-1" d="M155.42,317.28c16.44,13.3,56.37,49.29,74.07,110.43,6.89,23.82,24.03,98.49-21.1,169.82-42.74,67.54-111.73,85.35-126.69,88.84,40.03-.9,80.05-1.79,120.08-2.69,11.77-3.35,28.97-9.81,46.14-23.01,29.39-22.59,42.27-51.03,50.5-75.17,7.94-23.28,16.05-55.21,17.88-93.68,.22-4.51,2.77-70.25-19.02-129.54-3-8.15-8.73-23.52-19.54-41.85-5.82-9.87-11.82-20.04-21.5-31.08-3.18-3.63-9-10.2-17.17-20.34-2.06-2.56-4.32-5.53-7.25-9.62-1.89-2.64-9.32-13.15-17.41-27.99-4.9-8.99-9.4-17.33-13.6-29.22-2.74-7.76-4.23-13.88-5.63-19.65-2.93-12.14-3.31-17.59-5.76-30.76-1.22-6.55-3.13-15.98-6.02-27.42,2.3,35.01,1.39,79.95-9.67,130.53-5.07,23.19-11.5,44.05-18.31,62.41Z"/>
  <path class="cls-1" d="M112.18,480.01c-7.11,2.52-18.15,5.3-30.92,3.34-20.13-3.09-27.47-15.33-46.74-17.71-7.35-.91-18.39-.63-32.7,6"/>
</svg>