<?xml version="1.0" encoding="UTF-8" standalone="no"?>
<!-- Created with Inkscape (http://www.inkscape.org/) -->

<svg
   version="1.1"
   id="svg2"
   width="1133.8586"
   height="1133.8586"
   viewBox="0 0 1133.8586 1133.8586"
   sodipodi:docname="Reyan logo quadratic_full .ai"
   xmlns:inkscape="http://www.inkscape.org/namespaces/inkscape"
   xmlns:sodipodi="http://sodipodi.sourceforge.net/DTD/sodipodi-0.dtd"
   xmlns="http://www.w3.org/2000/svg"
   xmlns:svg="http://www.w3.org/2000/svg">
  <defs
     id="defs6">
    <clipPath
       clipPathUnits="userSpaceOnUse"
       id="clipPath16">
      <path
         d="M 0,850.394 H 850.394 V 0 H 0 Z"
         id="path14" />
    </clipPath>
  </defs>
  <sodipodi:namedview
     id="namedview4"
     pagecolor="#ffffff"
     bordercolor="#000000"
     borderopacity="0.25"
     inkscape:showpageshadow="2"
     inkscape:pageopacity="0.0"
     inkscape:pagecheckerboard="0"
     inkscape:deskcolor="#d1d1d1" />
  <g
     id="g8"
     inkscape:groupmode="layer"
     inkscape:label="Reyan logo quadratic_full "
     transform="matrix(1.3333333,0,0,-1.3333333,0,1133.8587)">
    <g
       id="g10">
      <g
         id="g12"
         clip-path="url(#clipPath16)">
        <g
           id="g18"
           transform="translate(229.2864,268.2935)">
          <path
             d="m 0,0 c 4.338,-8.477 9.01,-19.405 12.539,-32.566 3.098,-11.552 4.557,-22 5.199,-30.675 13.619,-2.928 30.713,-5.413 50.467,-5.575 21.575,-0.177 40.11,2.469 54.559,5.575 13.67,21.292 27.34,42.585 41.01,63.877 -2.584,-1.722 -24.585,-16.187 -30.611,-10.325 -1.014,0.987 -1.974,2.938 -1.309,7.184 0,0 0.064,21.326 0.067,22.074 0.126,29.245 42.023,129.482 53.235,157.917 11.213,28.436 22.54,63.748 30.334,105.07 9.02,47.828 10.756,90.188 9.783,123.993 1.058,18.325 0.307,50.928 -15.942,86.221 -7.884,17.126 -17.393,30.487 -25.724,40.325 -9.245,8.253 -21.679,17.809 -37.544,26.42 -21.308,11.564 -41.073,17.227 -55.62,20.162 3.513,-6.238 9.252,-16.975 14.996,-30.827 C 143.004,458.245 124.091,370.943 86.277,206.748 80.332,180.934 72.066,147.571 56.042,107.145 38.335,62.47 20.05,31.613 12.137,18.785 7.33,10.994 3.098,4.581 0,0"
             style="fill:#ffffff;fill-opacity:1;fill-rule:nonzero;stroke:none"
             id="path20" />
        </g>
        <g
           id="g22"
           transform="translate(229.2864,268.2935)">
          <path
             d="m 0,0 c 4.338,-8.477 9.01,-19.405 12.539,-32.566 3.098,-11.552 4.557,-22 5.199,-30.675 13.619,-2.928 30.713,-5.413 50.467,-5.575 21.575,-0.177 40.11,2.469 54.559,5.575 13.67,21.292 27.34,42.585 41.01,63.877 -2.584,-1.722 -24.585,-16.187 -30.611,-10.325 -1.014,0.987 -1.974,2.938 -1.309,7.184 0,0 0.064,21.326 0.067,22.074 0.126,29.245 42.023,129.482 53.235,157.917 11.213,28.436 22.54,63.748 30.334,105.07 9.02,47.828 10.756,90.188 9.783,123.993 1.058,18.325 0.307,50.928 -15.942,86.221 -7.884,17.126 -17.393,30.487 -25.724,40.325 -9.245,8.253 -21.679,17.809 -37.544,26.42 -21.308,11.564 -41.073,17.227 -55.62,20.162 3.513,-6.238 9.252,-16.975 14.996,-30.827 C 143.004,458.245 124.091,370.943 86.277,206.748 80.332,180.934 72.066,147.571 56.042,107.145 38.335,62.47 20.05,31.613 12.137,18.785 7.33,10.994 3.098,4.581 0,0 Z"
             style="fill:none;stroke:#231f20;stroke-width:3;stroke-linecap:butt;stroke-linejoin:miter;stroke-miterlimit:10;stroke-dasharray:none;stroke-opacity:1"
             id="path24" />
        </g>
        <g
           id="g26"
           transform="translate(419.2507,458.4081)">
          <path
             d="m 0,0 c 20.325,-16.441 69.681,-60.925 91.556,-136.498 8.521,-29.438 29.703,-121.742 -26.084,-209.912 -52.824,-83.487 -138.108,-105.5 -156.6,-109.819 49.475,1.107 98.949,2.215 148.424,3.323 14.55,4.135 35.808,12.126 57.033,28.444 36.325,27.929 52.246,63.082 62.419,92.911 9.813,28.775 19.836,68.243 22.106,115.8 0.266,5.572 3.426,86.835 -23.514,160.121 -3.703,10.073 -10.79,29.073 -24.154,51.73 -7.199,12.205 -14.612,24.772 -26.574,38.419 -3.936,4.491 -11.122,12.613 -21.222,25.143 -2.546,3.158 -5.343,6.831 -8.959,11.89 -2.335,3.266 -11.526,16.255 -21.527,34.602 -6.055,11.11 -11.618,21.423 -16.805,36.122 -3.385,9.595 -5.234,17.16 -6.957,24.294 -3.626,15.011 -4.096,21.744 -7.123,38.023 -1.505,8.094 -3.867,19.757 -7.435,33.893 C 37.421,195.209 36.296,139.657 22.637,77.139 16.375,48.478 8.427,22.696 0,0"
             style="fill:#ffffff;fill-opacity:1;fill-rule:nonzero;stroke:none"
             id="path28" />
        </g>
        <g
           id="g30"
           transform="translate(419.2507,458.4081)">
          <path
             d="m 0,0 c 20.325,-16.441 69.681,-60.925 91.556,-136.498 8.521,-29.438 29.703,-121.742 -26.084,-209.912 -52.824,-83.487 -138.108,-105.5 -156.6,-109.819 49.475,1.107 98.949,2.215 148.424,3.323 14.55,4.135 35.808,12.126 57.033,28.444 36.325,27.929 52.246,63.082 62.419,92.911 9.813,28.775 19.836,68.243 22.106,115.8 0.266,5.572 3.426,86.835 -23.514,160.121 -3.703,10.073 -10.79,29.073 -24.154,51.73 -7.199,12.205 -14.612,24.772 -26.574,38.419 -3.936,4.491 -11.122,12.613 -21.222,25.143 -2.546,3.158 -5.343,6.831 -8.959,11.89 -2.335,3.266 -11.526,16.255 -21.527,34.602 -6.055,11.11 -11.618,21.423 -16.805,36.122 -3.385,9.595 -5.234,17.16 -6.957,24.294 -3.626,15.011 -4.096,21.744 -7.123,38.023 -1.505,8.094 -3.867,19.757 -7.435,33.893 C 37.421,195.209 36.296,139.657 22.637,77.139 16.375,48.478 8.427,22.696 0,0 Z"
             style="fill:none;stroke:#231f20;stroke-width:3;stroke-linecap:butt;stroke-linejoin:miter;stroke-miterlimit:10;stroke-dasharray:none;stroke-opacity:1"
             id="path32" />
        </g>
        <g
           id="g34"
           transform="translate(365.801,257.261)">
          <path
             d="m 0,0 c -8.793,-3.113 -22.436,-6.547 -38.221,-4.124 -24.876,3.819 -33.953,18.943 -57.775,21.889 -9.08,1.123 -22.734,0.777 -40.424,-7.418"
             style="fill:#ffffff;fill-opacity:1;fill-rule:nonzero;stroke:#231f20;stroke-width:3;stroke-linecap:butt;stroke-linejoin:miter;stroke-miterlimit:10;stroke-dasharray:none;stroke-opacity:1"
             id="path36" />
        </g>
      </g>
    </g>
  </g>
</svg>
