<?xml version="1.0" encoding="UTF-8" standalone="no"?>
<!-- Created with Inkscape (http://www.inkscape.org/) -->

<svg
   version="1.1"
   id="svg2"
   width="1133.8586"
   height="1133.8586"
   viewBox="0 0 1133.8586 1133.8586"
   sodipodi:docname="Reyan logo quadratic.ai"
   xmlns:inkscape="http://www.inkscape.org/namespaces/inkscape"
   xmlns:sodipodi="http://sodipodi.sourceforge.net/DTD/sodipodi-0.dtd"
   xmlns="http://www.w3.org/2000/svg"
   xmlns:svg="http://www.w3.org/2000/svg">
  <defs
     id="defs6">
    <clipPath
       clipPathUnits="userSpaceOnUse"
       id="clipPath16">
      <path
         d="M 0,850.394 H 850.394 V 0 H 0 Z"
         id="path14" />
    </clipPath>
  </defs>
  <sodipodi:namedview
     id="namedview4"
     pagecolor="#ffffff"
     bordercolor="#000000"
     borderopacity="0.25"
     inkscape:showpageshadow="2"
     inkscape:pageopacity="0.0"
     inkscape:pagecheckerboard="0"
     inkscape:deskcolor="#d1d1d1" />
  <g
     id="g8"
     inkscape:groupmode="layer"
     inkscape:label="Reyan logo quadratic"
     transform="matrix(1.3333333,0,0,-1.3333333,0,1133.8587)">
    <g
       id="g10">
      <g
         id="g12"
         clip-path="url(#clipPath16)">
        <g
           id="g18"
           transform="translate(234.8571,274.5208)">
          <path
             d="m 0,0 c 4.213,-8.234 8.752,-18.85 12.18,-31.633 3.009,-11.222 4.427,-21.371 5.05,-29.797 13.229,-2.844 29.833,-5.258 49.021,-5.415 20.958,-0.172 38.962,2.398 52.998,5.415 13.278,20.682 26.557,41.365 39.835,62.048 -2.51,-1.673 -23.881,-15.724 -29.734,-10.029 -0.985,0.958 -1.918,2.853 -1.272,6.978 0,0 0.063,20.715 0.066,21.441 0.121,28.408 40.819,125.775 51.71,153.396 10.891,27.621 21.895,61.922 29.465,102.06 8.762,46.458 10.448,87.605 9.503,120.442 1.028,17.801 0.298,49.47 -15.485,83.753 -7.659,16.635 -16.895,29.613 -24.988,39.17 -8.98,8.017 -21.058,17.299 -36.469,25.663 -20.697,11.233 -39.897,16.734 -54.027,19.585 3.412,-6.059 8.987,-16.488 14.566,-29.944 36.49,-88.01 18.119,-172.812 -18.613,-332.306 C 78.032,175.752 70.002,143.345 54.438,104.077 37.237,60.681 19.476,30.708 11.789,18.247 7.121,10.679 3.009,4.45 0,0"
             style="fill:#ffffff;fill-opacity:1;fill-rule:nonzero;stroke:none"
             id="path20" />
        </g>
        <g
           id="g22"
           transform="translate(234.8571,274.5208)">
          <path
             d="m 0,0 c 4.213,-8.234 8.752,-18.85 12.18,-31.633 3.009,-11.222 4.427,-21.371 5.05,-29.797 13.229,-2.844 29.833,-5.258 49.021,-5.415 20.958,-0.172 38.962,2.398 52.998,5.415 13.278,20.682 26.557,41.365 39.835,62.048 -2.51,-1.673 -23.881,-15.724 -29.734,-10.029 -0.985,0.958 -1.918,2.853 -1.272,6.978 0,0 0.063,20.715 0.066,21.441 0.121,28.408 40.819,125.775 51.71,153.396 10.891,27.621 21.895,61.922 29.465,102.06 8.762,46.458 10.448,87.605 9.503,120.442 1.028,17.801 0.298,49.47 -15.485,83.753 -7.659,16.635 -16.895,29.613 -24.988,39.17 -8.98,8.017 -21.058,17.299 -36.469,25.663 -20.697,11.233 -39.897,16.734 -54.027,19.585 3.412,-6.059 8.987,-16.488 14.566,-29.944 36.49,-88.01 18.119,-172.812 -18.613,-332.306 C 78.032,175.752 70.002,143.345 54.438,104.077 37.237,60.681 19.476,30.708 11.789,18.247 7.121,10.679 3.009,4.45 0,0 Z"
             style="fill:none;stroke:#231f20;stroke-width:3;stroke-linecap:butt;stroke-linejoin:miter;stroke-miterlimit:10;stroke-dasharray:none;stroke-opacity:1"
             id="path24" />
        </g>
        <g
           id="g26"
           transform="translate(419.3815,459.1911)">
          <path
             d="m 0,0 c 19.743,-15.97 67.685,-59.181 88.934,-132.589 8.277,-28.595 28.853,-118.256 -25.337,-203.901 -51.311,-81.096 -134.153,-102.479 -152.115,-106.674 48.057,1.076 96.115,2.151 144.173,3.227 14.133,4.018 34.783,11.779 55.4,27.631 35.285,27.128 50.749,61.275 60.631,90.249 9.533,27.951 19.269,66.29 21.474,112.484 0.258,5.412 3.327,84.349 -22.841,155.536 -3.597,9.785 -10.481,28.241 -23.462,50.249 -6.994,11.856 -14.194,24.062 -25.813,37.319 -3.824,4.362 -10.804,12.251 -20.614,24.422 -2.473,3.068 -5.19,6.636 -8.704,11.55 -2.268,3.172 -11.195,15.789 -20.909,33.611 -5.882,10.792 -11.286,20.81 -16.324,35.088 -3.288,9.32 -5.085,16.668 -6.758,23.598 -3.523,14.581 -3.979,21.121 -6.919,36.934 -1.462,7.863 -3.756,19.192 -7.223,32.922 C 36.349,189.618 35.257,135.658 21.988,74.93 15.906,47.089 8.186,22.046 0,0"
             style="fill:#ffffff;fill-opacity:1;fill-rule:nonzero;stroke:none"
             id="path28" />
        </g>
        <g
           id="g30"
           transform="translate(419.3815,459.1911)">
          <path
             d="m 0,0 c 19.743,-15.97 67.685,-59.181 88.934,-132.589 8.277,-28.595 28.853,-118.256 -25.337,-203.901 -51.311,-81.096 -134.153,-102.479 -152.115,-106.674 48.057,1.076 96.115,2.151 144.173,3.227 14.133,4.018 34.783,11.779 55.4,27.631 35.285,27.128 50.749,61.275 60.631,90.249 9.533,27.951 19.269,66.29 21.474,112.484 0.258,5.412 3.327,84.349 -22.841,155.536 -3.597,9.785 -10.481,28.241 -23.462,50.249 -6.994,11.856 -14.194,24.062 -25.813,37.319 -3.824,4.362 -10.804,12.251 -20.614,24.422 -2.473,3.068 -5.19,6.636 -8.704,11.55 -2.268,3.172 -11.195,15.789 -20.909,33.611 -5.882,10.792 -11.286,20.81 -16.324,35.088 -3.288,9.32 -5.085,16.668 -6.758,23.598 -3.523,14.581 -3.979,21.121 -6.919,36.934 -1.462,7.863 -3.756,19.192 -7.223,32.922 C 36.349,189.618 35.257,135.658 21.988,74.93 15.906,47.089 8.186,22.046 0,0 Z"
             style="fill:none;stroke:#231f20;stroke-width:3;stroke-linecap:butt;stroke-linejoin:miter;stroke-miterlimit:10;stroke-dasharray:none;stroke-opacity:1"
             id="path32" />
        </g>
        <g
           id="g34"
           transform="translate(367.4624,263.8042)">
          <path
             d="m 0,0 c -8.541,-3.024 -21.794,-6.36 -37.127,-4.006 -24.163,3.709 -32.98,18.401 -56.12,21.262 -8.82,1.091 -22.083,0.755 -39.267,-7.205"
             style="fill:#ffffff;fill-opacity:1;fill-rule:nonzero;stroke:#231f20;stroke-width:3;stroke-linecap:butt;stroke-linejoin:miter;stroke-miterlimit:10;stroke-dasharray:none;stroke-opacity:1"
             id="path36" />
        </g>
      </g>
    </g>
  </g>
</svg>
